<?xml version="1.0" encoding="utf-8"?>
<!-- Generator: Adobe Illustrator 16.0.3, SVG Export Plug-In . SVG Version: 6.00 Build 0)  -->
<!DOCTYPE svg PUBLIC "-//W3C//DTD SVG 1.1//EN" "http://www.w3.org/Graphics/SVG/1.1/DTD/svg11.dtd">
<svg version="1.1" id="Layer_1" xmlns="http://www.w3.org/2000/svg" xmlns:xlink="http://www.w3.org/1999/xlink" x="0px" y="0px"
	 width="22.236px" height="16.465px" viewBox="0 0 22.236 16.465" enable-background="new 0 0 22.236 16.465" xml:space="preserve">
<path fill="#828282" d="M0,10.283c0-2.93,0.698-5.244,2.095-6.943C3.491,1.641,5.527,0.527,8.203,0v3.047
	C6.211,3.672,4.873,4.746,4.189,6.27C3.838,7.071,3.691,7.9,3.75,8.76h4.6v7.705H0V10.283z M13.887,10.283
	c0-2.969,0.718-5.292,2.153-6.973c1.436-1.68,3.452-2.783,6.05-3.311v3.047c-1.973,0.605-3.301,1.699-3.984,3.281
	c-0.391,0.84-0.547,1.651-0.469,2.432h4.6v7.705h-8.35V10.283z"/>
</svg>
