<?xml version="1.0" encoding="utf-8"?>
<!-- Generator: Adobe Illustrator 16.0.3, SVG Export Plug-In . SVG Version: 6.00 Build 0)  -->
<!DOCTYPE svg PUBLIC "-//W3C//DTD SVG 1.1//EN" "http://www.w3.org/Graphics/SVG/1.1/DTD/svg11.dtd">
<svg version="1.1" id="Layer_1" xmlns="http://www.w3.org/2000/svg" xmlns:xlink="http://www.w3.org/1999/xlink" x="0px" y="0px"
	 width="22.178px" height="16.465px" viewBox="0 0 22.178 16.465" enable-background="new 0 0 22.178 16.465" xml:space="preserve">
<path fill="#828282" d="M0.146,13.389c1.973-0.625,3.3-1.699,3.984-3.223C4.501,9.365,4.658,8.545,4.6,7.705H0V0h8.35v6.182
	c0,2.871-0.698,5.176-2.095,6.914c-1.396,1.739-3.433,2.861-6.108,3.369V13.389z M13.975,13.389c2.025-0.605,3.372-1.718,4.04-3.34
	c0.275-0.645,0.413-1.425,0.413-2.344h-4.6V0h8.35v6.182c0,2.793-0.682,5.073-2.043,6.841c-1.363,1.768-3.416,2.915-6.16,3.442
	V13.389z"/>
</svg>
