<?xml version="1.0" encoding="utf-8"?>
<!-- Generator: Adobe Illustrator 16.0.3, SVG Export Plug-In . SVG Version: 6.00 Build 0)  -->
<!DOCTYPE svg PUBLIC "-//W3C//DTD SVG 1.1//EN" "http://www.w3.org/Graphics/SVG/1.1/DTD/svg11.dtd">
<svg version="1.1" id="Layer_1" xmlns="http://www.w3.org/2000/svg" xmlns:xlink="http://www.w3.org/1999/xlink" x="0px" y="0px"
	 width="20px" height="12.338px" viewBox="0 0 20 12.338" enable-background="new 0 0 20 12.338" xml:space="preserve">
<path fill="#979797" d="M20,0.5C20,0.776,19.776,1,19.5,1h-19C0.224,1,0,0.776,0,0.5l0,0C0,0.224,0.224,0,0.5,0h19
	C19.776,0,20,0.224,20,0.5L20,0.5z"/>
<path fill="#979797" d="M20,6.169c0,0.276-0.224,0.5-0.5,0.5h-19c-0.276,0-0.5-0.224-0.5-0.5l0,0c0-0.276,0.224-0.5,0.5-0.5h19
	C19.776,5.669,20,5.893,20,6.169L20,6.169z"/>
<path fill="#979797" d="M20,11.838c0,0.275-0.224,0.5-0.5,0.5h-19c-0.276,0-0.5-0.225-0.5-0.5l0,0c0-0.277,0.224-0.5,0.5-0.5h19
	C19.776,11.338,20,11.561,20,11.838L20,11.838z"/>
</svg>
