<?xml version="1.0" encoding="utf-8"?>
<!-- Generator: Adobe Illustrator 16.0.3, SVG Export Plug-In . SVG Version: 6.00 Build 0)  -->
<!DOCTYPE svg PUBLIC "-//W3C//DTD SVG 1.1//EN" "http://www.w3.org/Graphics/SVG/1.1/DTD/svg11.dtd">
<svg version="1.1" id="Layer_1" xmlns="http://www.w3.org/2000/svg" xmlns:xlink="http://www.w3.org/1999/xlink" x="0px" y="0px"
	 width="60px" height="70px" viewBox="0 0 60 70" enable-background="new 0 0 60 70" xml:space="preserve">
<path fill="#828282" d="M30,10.375C16.397,10.375,5.375,21.399,5.375,35c0,13.6,11.022,24.625,24.625,24.625
	C43.601,59.625,54.625,48.6,54.625,35C54.625,21.399,43.6,10.375,30,10.375z M32.463,42.086c-1.978,0-3.83-1.065-4.467-2.279
	c0,0-1.062,4.212-1.285,5.022c-0.789,2.872-3.119,5.745-3.299,5.979c-0.128,0.164-0.404,0.113-0.436-0.104
	c-0.051-0.364-0.645-3.987,0.056-6.944c0.353-1.483,2.351-9.959,2.351-9.959s-0.582-1.166-0.582-2.892
	c0-2.708,1.57-4.731,3.522-4.731c1.662,0,2.466,1.248,2.466,2.744c0,1.67-1.063,4.17-1.613,6.484
	c-0.459,1.939,0.974,3.521,2.885,3.521c3.463,0,5.795-4.448,5.795-9.719c0-4.004-2.696-7.004-7.604-7.004
	c-5.543,0-8.998,4.135-8.998,8.752c0,1.594,0.472,2.717,1.207,3.584c0.336,0.4,0.385,0.561,0.262,1.021
	c-0.09,0.337-0.288,1.146-0.375,1.467c-0.12,0.464-0.496,0.628-0.913,0.457c-2.554-1.042-3.743-3.84-3.743-6.981
	c0-5.191,4.379-11.418,13.062-11.418c6.979,0.004,11.568,5.053,11.568,10.473C42.322,36.729,38.336,42.086,32.463,42.086z"/>
</svg>
