<?xml version="1.0" encoding="utf-8"?>
<!-- Generator: Adobe Illustrator 16.0.3, SVG Export Plug-In . SVG Version: 6.00 Build 0)  -->
<!DOCTYPE svg PUBLIC "-//W3C//DTD SVG 1.1//EN" "http://www.w3.org/Graphics/SVG/1.1/DTD/svg11.dtd">
<svg version="1.1" id="Layer_1" xmlns="http://www.w3.org/2000/svg" xmlns:xlink="http://www.w3.org/1999/xlink" x="0px" y="0px"
	 width="312px" height="48px" viewBox="0 0 312 48" enable-background="new 0 0 312 48" xml:space="preserve">
<g>
	<g>
		<path d="M17.084,9.213c3.021,0,5.637,0.503,7.85,1.51c2.213,1.008,4.025,2.327,5.436,3.958c1.412,1.631,2.447,3.364,3.106,5.202
			c0.66,1.837,0.989,3.599,0.989,5.286c0,1.929-0.372,3.823-1.117,5.681c-0.745,1.858-1.844,3.557-3.297,5.096
			c-1.454,1.539-3.255,2.77-5.404,3.691c-2.148,0.922-4.542,1.383-7.18,1.383c-3.816,0-7.05-0.826-9.702-2.479
			c-2.653-1.652-4.61-3.698-5.873-6.139C0.631,29.963,0,27.581,0,25.254c0-2.056,0.4-4.049,1.201-5.979
			c0.802-1.929,1.965-3.655,3.49-5.181c1.525-1.524,3.351-2.72,5.478-3.584C12.297,9.646,14.602,9.213,17.084,9.213z M16.212,10.042
			V9.83c-1.986,0.015-3.922,0.44-5.808,1.277c-1.886,0.836-3.546,1.972-4.978,3.403c-1.433,1.434-2.55,3.064-3.351,4.894
			c-0.801,1.83-1.202,3.752-1.202,5.766c0,2.468,0.67,4.869,2.011,7.202c1.34,2.333,3.195,4.23,5.563,5.691s4.971,2.234,7.808,2.318
			v-0.234c-2.752-0.24-5.185-1.099-7.298-2.574c-2.113-1.475-3.72-3.304-4.818-5.488c-1.1-2.185-1.649-4.447-1.649-6.787
			c0-1.929,0.319-3.779,0.957-5.553C4.085,17.971,5.007,16.39,6.212,15s2.663-2.519,4.373-3.384
			C12.294,10.752,14.17,10.227,16.212,10.042z M17.212,10.703c-2.199,0-4.23,0.574-6.096,1.724
			c-1.865,1.148-3.348,2.808-4.447,4.978c-1.099,2.171-1.649,4.73-1.649,7.681c0,3.178,0.599,5.861,1.798,8.053
			s2.737,3.816,4.617,4.872c1.879,1.057,3.819,1.585,5.819,1.585c1.63,0,3.176-0.312,4.637-0.936
			c1.461-0.624,2.766-1.535,3.915-2.734c1.148-1.198,2.045-2.674,2.691-4.426c0.646-1.751,0.969-3.705,0.969-5.861
			c0-2.949-0.341-5.304-1.021-7.063c-0.681-1.758-1.681-3.297-3-4.616c-1.121-1.12-2.394-1.942-3.819-2.468
			S18.729,10.703,17.212,10.703z M18.297,9.83v0.213c1.375,0.1,2.759,0.423,4.148,0.969c1.39,0.546,2.692,1.396,3.904,2.553
			c1.213,1.156,2.188,2.713,2.925,4.67s1.106,4.312,1.106,7.063c0,1.801-0.217,3.524-0.649,5.17
			c-0.433,1.645-1.127,3.163-2.085,4.553c-0.958,1.391-2.209,2.539-3.755,3.447c-1.546,0.907-3.397,1.467-5.553,1.68v0.234
			c1.815-0.084,3.539-0.475,5.17-1.17c1.631-0.695,3.082-1.691,4.351-2.989s2.272-2.883,3.01-4.755
			c0.738-1.873,1.106-3.957,1.106-6.256c0-2.51-0.383-4.726-1.149-6.647c-0.766-1.922-1.809-3.521-3.127-4.798
			c-1.319-1.277-2.784-2.241-4.394-2.894C21.697,10.22,20.027,9.873,18.297,9.83z"/>
		<path d="M36.573,9.873V9.66h16.084v0.213l-5.277,0.744c-0.184,1.376-0.34,3.23-0.467,5.564c-0.128,2.333-0.192,4.372-0.192,6.116
			v9.148c0,2.198,0.113,4.49,0.341,6.872c2.425,0.766,4.928,1.149,7.51,1.149c1.248,0,2.396-0.071,3.446-0.213
			c1.05-0.143,1.788-0.277,2.213-0.404l2.212-5.809h0.319l-1,7.766H36.53v-0.213l5.084-0.744c0.171-0.682,0.315-1.895,0.437-3.639
			c0.121-1.744,0.216-3.546,0.287-5.404c0.071-1.857,0.106-3.17,0.106-3.936V21.51c0-1.177-0.029-2.528-0.085-4.053
			c-0.057-1.524-0.125-2.861-0.203-4.011c-0.078-1.148-0.181-2.092-0.309-2.83L36.573,9.873z M43.019,10.447v29.53h1.49v-29.53
			H43.019z"/>
		<path d="M63.763,9.66h17.51c3.262,0,6.039,0.472,8.33,1.415c2.29,0.943,4.099,2.174,5.425,3.691
			c1.326,1.518,2.276,3.17,2.851,4.957c0.575,1.787,0.862,3.604,0.862,5.446c0,2.241-0.373,4.323-1.117,6.245
			c-0.745,1.922-1.816,3.588-3.213,4.999c-1.397,1.411-3.042,2.497-4.936,3.255c-1.894,0.76-3.975,1.139-6.245,1.139H63.635v-0.213
			l5.17-0.744c0.241-1.205,0.433-3.203,0.575-5.99c0.142-2.786,0.213-4.975,0.213-6.562v-5.574c0-4.128-0.185-7.815-0.553-11.063
			l-5.276-0.787V9.66z M70.21,10.49v29.487h1.489V10.49H70.21z M73.87,20.319v12.426c0,1.828,0.099,3.688,0.297,5.573
			c0.907,0.425,1.936,0.737,3.085,0.937c1.149,0.198,2.297,0.297,3.447,0.297c1.588,0,3.156-0.301,4.702-0.904
			c1.546-0.602,2.939-1.492,4.181-2.67c1.241-1.177,2.237-2.677,2.989-4.499c0.751-1.823,1.128-3.911,1.128-6.267
			c0-2.468-0.397-4.605-1.192-6.414c-0.794-1.808-1.89-3.29-3.287-4.446s-2.997-2.011-4.797-2.563
			c-1.801-0.554-3.695-0.83-5.681-0.83c-1.603,0-3.05,0.178-4.34,0.532c-0.085,0.539-0.167,1.308-0.245,2.309
			c-0.078,0.999-0.146,2.174-0.202,3.521C73.897,18.667,73.87,19.667,73.87,20.319z M77.912,10.17v0.213
			c2.057,0,3.904,0.177,5.542,0.532c1.639,0.354,3.014,0.837,4.128,1.446c1.113,0.61,2.074,1.319,2.883,2.127
			c0.836,0.838,1.556,1.802,2.16,2.894c0.602,1.093,1.077,2.306,1.425,3.639c0.347,1.334,0.521,2.744,0.521,4.233
			c0,3.305-0.709,6.078-2.128,8.319c-1.418,2.241-3.163,3.882-5.233,4.925c-2.071,1.043-4.036,1.564-5.894,1.564h-1.617v0.212h1.617
			c3.092,0,5.77-0.677,8.032-2.031s3.975-3.177,5.138-5.468c1.163-2.291,1.745-4.77,1.745-7.436c0-2.383-0.415-4.507-1.245-6.373
			c-0.83-1.864-1.87-3.414-3.117-4.648c-2.68-2.766-6.907-4.148-12.68-4.148H77.912z"/>
		<path d="M118.144,33.361l1.617,5.233c0.809,0.369,1.755,0.666,2.84,0.895c1.085,0.227,2.024,0.333,2.819,0.318
			c1.064,0,2.039-0.184,2.926-0.553c0.886-0.369,1.609-0.838,2.17-1.404c0.56-0.567,0.989-1.209,1.287-1.926
			c0.298-0.716,0.447-1.415,0.447-2.096c0-1.404-0.475-2.588-1.425-3.553c-0.951-0.965-2.542-2.199-4.776-3.702
			c-2.234-1.503-3.854-2.758-4.861-3.766c-0.865-0.894-1.511-1.79-1.937-2.691c-0.425-0.9-0.638-1.904-0.638-3.011
			c0-1.22,0.333-2.432,1-3.638s1.695-2.209,3.085-3.011c1.39-0.801,3.099-1.202,5.127-1.202c0.922,0,1.9,0.047,2.936,0.139
			c1.035,0.092,1.752,0.139,2.149,0.139c0.34-0.015,0.66-0.025,0.958-0.032s0.535-0.021,0.713-0.043
			c0.176-0.021,0.365-0.046,0.563-0.074l0.127,7.276h-0.276l-1.34-4.915c-1.971-0.865-3.688-1.298-5.148-1.298
			c-1.22,0-2.316,0.23-3.287,0.692c-0.972,0.46-1.728,1.092-2.266,1.893c-0.54,0.802-0.809,1.706-0.809,2.713
			c0,1.05,0.362,2.011,1.085,2.883c0.724,0.872,1.713,1.728,2.968,2.563c1.255,0.838,2.602,1.724,4.042,2.66
			c1.439,0.936,2.592,1.837,3.458,2.701c1.688,1.688,2.532,3.638,2.532,5.851c0,1.249-0.326,2.536-0.979,3.861
			c-0.652,1.327-1.752,2.451-3.298,3.373s-3.546,1.383-6,1.383c-0.866,0-1.918-0.05-3.159-0.148c-1.242-0.1-2.153-0.149-2.734-0.149
			c-0.27,0-0.479,0.007-0.628,0.021c-0.148,0.016-0.38,0.036-0.691,0.064c-0.312,0.028-0.497,0.043-0.553,0.043l-0.34-7.489H118.144
			z M128.548,9.702h-0.681c-1.56,0-3,0.312-4.319,0.937c-1.319,0.625-2.361,1.511-3.127,2.66c-0.766,1.148-1.149,2.446-1.149,3.893
			c0,1.802,0.788,3.49,2.362,5.064c0.694,0.667,1.344,1.227,1.946,1.681c0.603,0.454,1.514,1.096,2.734,1.925
			c1.22,0.83,2.195,1.511,2.926,2.042c0.73,0.533,1.329,1.04,1.797,1.521c1.277,1.277,1.916,2.703,1.916,4.276
			c0,1.079-0.295,2.118-0.883,3.117c-0.589,1-1.44,1.815-2.553,2.446c-1.114,0.631-2.422,0.955-3.925,0.969v0.234
			c1.73,0.057,3.272-0.248,4.627-0.916c1.354-0.666,2.39-1.545,3.106-2.637c0.716-1.093,1.075-2.221,1.075-3.384
			c0-1.007-0.164-1.922-0.49-2.745c-0.327-0.822-0.922-1.666-1.787-2.531c-0.497-0.496-1.39-1.188-2.681-2.074
			c-1.291-0.887-2.595-1.779-3.914-2.681c-1.319-0.9-2.284-1.642-2.894-2.224c-1.49-1.475-2.234-3.099-2.234-4.872
			c0-1.56,0.677-3.014,2.032-4.361c1.354-1.347,3.393-2.057,6.117-2.128V9.702z"/>
		<path d="M154.1,40.807h-16.084v-0.213l5.192-0.787c0.241-1.772,0.421-3.911,0.542-6.414c0.121-2.504,0.181-4.955,0.181-7.352
			v-3.574c0-4.864-0.212-8.814-0.638-11.851l-5.277-0.744V9.66H154.1v0.213l-5.319,0.744c-0.156,1.376-0.27,2.621-0.34,3.734
			c-0.071,1.113-0.135,2.461-0.192,4.042c-0.057,1.582-0.085,3.067-0.085,4.457v4.702c0,0.865,0.032,2.28,0.096,4.245
			c0.064,1.965,0.149,3.627,0.256,4.988c0.106,1.362,0.208,2.383,0.309,3.064l5.276,0.744V40.807z M144.504,10.49v29.487h1.49V10.49
			H144.504z"/>
		<path d="M154.568,9.873V9.66h10.745c0.709,0.965,1.627,2.128,2.754,3.489c1.129,1.361,2.131,2.532,3.01,3.511l9.531,10.595
			c1.264,1.376,2.246,2.44,2.947,3.191c0.703,0.752,1.613,1.666,2.734,2.744c0.086-0.979,0.143-1.893,0.17-2.744
			c0.029-0.852,0.043-1.652,0.043-2.404v-9.19c0-3.305-0.164-6.035-0.49-8.191l-5.17-0.787V9.66h12.66v0.213l-5.17,0.83
			c-0.27,1.985-0.404,4.524-0.404,7.616v23.318h-0.213c-2.17-2.752-4.318-5.326-6.447-7.723l-13.02-14.511
			c-1.93-2.057-3.574-3.694-4.936-4.915c-0.199,1.93-0.299,3.731-0.299,5.404v13.468c0,1.802,0.143,3.95,0.426,6.446l5.404,0.787
			v0.213h-12.936v-0.213l5.235-0.744c0.17-1.021,0.289-2.476,0.361-4.361c0.07-1.887,0.105-3.567,0.105-5.043V20.021
			c0-1.234-0.021-2.457-0.062-3.67c-0.043-1.213-0.121-2.415-0.234-3.606l-2.83-2.085L154.568,9.873z M160.93,10.447l25.699,28.573
			v-2l-23.912-26.573H160.93z"/>
		<path d="M209.969,40.594v0.213h-15.936v-0.213l4.83-0.66c0.17-1.177,0.311-2.596,0.426-4.254c0.113-1.66,0.201-3.27,0.266-4.83
			s0.096-2.979,0.096-4.255v-6c0-1.688-0.061-3.5-0.182-5.436c-0.119-1.937-0.266-3.437-0.436-4.5l-5-0.787V9.66h15.979v0.213
			l-5.531,0.787c-0.143,1.021-0.264,2.391-0.363,4.106c-0.1,1.717-0.148,2.957-0.148,3.723v5.489
			c0.965-0.666,2.051-1.527,3.256-2.585c1.205-1.056,2.561-2.294,4.062-3.713c3.051-2.907,5.312-5.247,6.787-7.021l-5-0.787V9.66
			h12.148v0.213l-4.191,0.744c-0.354,0.242-0.949,0.738-1.787,1.49c-0.836,0.752-1.844,1.681-3.02,2.787
			c-1.178,1.105-2.455,2.297-3.83,3.574c-1.375,1.276-2.418,2.233-3.129,2.872c0.838,1.418,2.121,3.142,3.852,5.17l4.703,5.766
			c2.779,3.348,5.176,5.872,7.191,7.574l3.914,0.744v0.213h-14.893v-0.213l4.041-0.744c-0.865-1.447-1.996-3.1-3.393-4.957
			c-1.396-1.858-2.879-3.721-4.447-5.586c-1.566-1.865-3.004-3.492-4.309-4.882l-2.021,1.872v4.659c0,0.823,0.057,2.273,0.172,4.351
			c0.113,2.078,0.246,3.592,0.404,4.543L209.969,40.594z M200.204,10.49v29.53h1.531V10.49H200.204z M207.352,22.85l-0.957,0.958
			l13.34,16.212h1.787L207.352,22.85z"/>
		<path d="M230.67,33.361l1.617,5.233c0.809,0.369,1.756,0.666,2.84,0.895c1.086,0.227,2.025,0.333,2.818,0.318
			c1.064,0,2.039-0.184,2.926-0.553s1.611-0.838,2.172-1.404c0.559-0.567,0.988-1.209,1.285-1.926
			c0.299-0.716,0.447-1.415,0.447-2.096c0-1.404-0.475-2.588-1.426-3.553c-0.949-0.965-2.541-2.199-4.775-3.702
			s-3.855-2.758-4.861-3.766c-0.865-0.894-1.512-1.79-1.936-2.691c-0.426-0.9-0.639-1.904-0.639-3.011c0-1.22,0.332-2.432,1-3.638
			c0.666-1.206,1.695-2.209,3.084-3.011c1.391-0.801,3.1-1.202,5.129-1.202c0.92,0,1.898,0.047,2.936,0.139
			c1.035,0.092,1.752,0.139,2.148,0.139c0.34-0.015,0.66-0.025,0.957-0.032c0.299-0.007,0.535-0.021,0.713-0.043
			c0.176-0.021,0.363-0.046,0.562-0.074l0.129,7.276h-0.277l-1.34-4.915c-1.971-0.865-3.688-1.298-5.148-1.298
			c-1.221,0-2.316,0.23-3.287,0.692c-0.971,0.46-1.727,1.092-2.266,1.893c-0.539,0.802-0.809,1.706-0.809,2.713
			c0,1.05,0.361,2.011,1.086,2.883c0.723,0.872,1.713,1.728,2.967,2.563c1.256,0.838,2.604,1.724,4.043,2.66
			c1.439,0.936,2.592,1.837,3.457,2.701c1.688,1.688,2.531,3.638,2.531,5.851c0,1.249-0.326,2.536-0.979,3.861
			c-0.652,1.327-1.752,2.451-3.297,3.373c-1.547,0.922-3.547,1.383-6,1.383c-0.865,0-1.918-0.05-3.16-0.148
			c-1.24-0.1-2.152-0.149-2.732-0.149c-0.271,0-0.48,0.007-0.629,0.021c-0.148,0.016-0.379,0.036-0.691,0.064
			s-0.496,0.043-0.553,0.043l-0.342-7.489H230.67z M241.075,9.702h-0.682c-1.561,0-3,0.312-4.318,0.937
			c-1.32,0.625-2.361,1.511-3.127,2.66c-0.768,1.148-1.15,2.446-1.15,3.893c0,1.802,0.789,3.49,2.363,5.064
			c0.693,0.667,1.344,1.227,1.945,1.681c0.604,0.454,1.516,1.096,2.734,1.925c1.219,0.83,2.193,1.511,2.926,2.042
			c0.73,0.533,1.33,1.04,1.797,1.521c1.277,1.277,1.916,2.703,1.916,4.276c0,1.079-0.295,2.118-0.883,3.117
			c-0.59,1-1.439,1.815-2.553,2.446c-1.115,0.631-2.424,0.955-3.926,0.969v0.234c1.73,0.057,3.271-0.248,4.627-0.916
			c1.354-0.666,2.389-1.545,3.105-2.637c0.717-1.093,1.074-2.221,1.074-3.384c0-1.007-0.164-1.922-0.488-2.745
			c-0.326-0.822-0.922-1.666-1.787-2.531c-0.496-0.496-1.391-1.188-2.682-2.074s-2.596-1.779-3.914-2.681
			c-1.318-0.9-2.283-1.642-2.893-2.224c-1.49-1.475-2.234-3.099-2.234-4.872c0-1.56,0.676-3.014,2.031-4.361
			c1.354-1.347,3.395-2.057,6.117-2.128V9.702z"/>
	</g>
	<g>
		<path fill-rule="evenodd" clip-rule="evenodd" d="M298.225,33.314c-0.014-0.534,0.43-0.41,0.703-0.442
			c2.42-0.273,4.771-0.825,7.039-1.715c1.131-0.443,2.213-0.984,3.246-1.627c0.459-0.287,0.859-0.641,1.209-1.053
			c0.717-0.851,0.791-1.755,0.236-2.715c-0.523-0.904-1.318-1.5-2.203-1.999c-1.434-0.805-3.012-1.209-4.57-1.665
			c2.393,0.37,4.783,0.727,6.734,2.362c0.738,0.625,1.133,1.45,1.381,2.368c0,0.186,0,0.373,0,0.56
			c-0.379,1.623-1.496,2.612-2.885,3.38c-3.008,1.665-6.266,2.482-9.639,2.925c-0.418,0.055-0.779-0.055-1.131-0.255
			C298.307,33.395,298.264,33.354,298.225,33.314z"/>
		<path fill-rule="evenodd" clip-rule="evenodd" d="M289.012,6.363c0.414,0.063,0.832,0.102,1.242,0.184
			c1.982,0.408,3.1,1.827,3.398,4.09c0.285,2.109-0.133,4.191-0.127,6.29c0,0.344,0,0.688,0,1.031c-0.076,0-0.146,0-0.223,0
			c0-1.237-0.021-2.474,0.01-3.712c0.029-1.193-0.012-2.377-0.246-3.553c-0.467-2.325-1.756-3.403-4.135-3.467
			c-0.969-0.027-1.908,0.13-2.822,0.426c-1.723,0.558-2.395,1.304-2.893,3.158c-0.18-0.825,0.285-2.079,1.076-2.785
			c1.027-0.917,2.268-1.349,3.613-1.527c0.275-0.04,0.551-0.092,0.824-0.135C288.827,6.363,288.918,6.363,289.012,6.363z"/>
		<path fill-rule="evenodd" clip-rule="evenodd" d="M274.139,38.606c0.545-0.563,1.068-0.02,1.498,0.135
			c2.232,0.795,4.547,1.15,6.883,1.389c3.139,0.316,6.291,0.342,9.439,0.262c3.561-0.08,7.053-0.586,10.379-1.951
			c0.107-0.043,0.211-0.088,0.322-0.131c0.207-0.084,0.387-0.012,0.467,0.174c0.098,0.23-0.141,0.268-0.268,0.328
			c-1.275,0.639-2.613,1.109-3.998,1.463c-2.018,0.513-4.078,0.721-6.15,0.841c-2.855,0.175-5.709-0.059-8.564-0.017
			c-0.918,0.015-1.859-0.04-2.75-0.114c-0.881-0.078-1.869-0.05-2.715-0.503c-0.021-0.01-0.053-0.027-0.066-0.022
			c-0.443,0.312-0.746-0.135-1.117-0.215c-0.543-0.116-1.084-0.27-1.611-0.45c-0.506-0.168-0.998-0.387-1.49-0.59
			c-0.281-0.111-0.545-0.246-0.236-0.598C274.161,38.61,274.139,38.606,274.139,38.606z"/>
		<path fill-rule="evenodd" clip-rule="evenodd" d="M280.083,32.467c-0.539,0.394-1.119,0.194-1.688,0.11
			c-2.93-0.416-5.832-0.961-8.586-2.103c-1.146-0.473-2.234-1.052-3.152-1.906c-2.191-2.031-1.918-4.894,0.619-6.467
			c0.574-0.355,1.189-0.637,1.826-0.869c4.553-1.663,9.215-2.465,14.064-1.729c0.32,0.046,0.65,0.046,0.975,0.084
			c0.318,0.039,0.631,0.091,0.943,0.203c-0.43,0-0.865,0.04-1.287-0.006c-4.965-0.524-9.756,0.221-14.426,1.906
			c-0.832,0.302-1.637,0.671-2.338,1.232c-1.535,1.228-1.752,3.1-0.508,4.63c0.938,1.152,2.229,1.811,3.57,2.346
			c2.654,1.064,5.447,1.566,8.262,1.974c0.418,0.06,0.832,0.103,1.25,0.151c0.264,0.035,0.527,0.068,0.477,0.443H280.083z"/>
		<path fill-rule="evenodd" clip-rule="evenodd" d="M280.083,32.467h0.002c0.213-0.406,0.574-0.317,0.922-0.273
			c4.852,0.615,9.713,1.114,14.617,0.935c0.582-0.021,1.16-0.075,1.744-0.117c0.326-0.023,0.658-0.054,0.857,0.303
			c0.039,0.04,0.082,0.081,0.121,0.124c0.133,0.113,0.271,0.271,0.006,0.352c-0.324,0.093-0.807,0.262-0.963,0.188
			c-0.471-0.225-1.387,0.191-1.727,0.039c-0.332-0.152-0.818-0.055-1.156,0.049c-0.398,0.123-2.143-0.131-2.545-0.152
			c-2.559-0.109-5.109-0.331-7.654-0.631c-1.318-0.153-2.639-0.286-3.955-0.438C280.133,32.824,279.811,32.846,280.083,32.467z"/>
		<path fill-rule="evenodd" clip-rule="evenodd" d="M294.217,28.918c-0.039-0.436,0.301-0.256,0.471-0.258
			c3.012-0.059,6.002-0.347,8.969-0.855c0.918-0.158,1.836-0.346,2.691-0.721c0.295-0.127,0.668-0.256,0.705-0.617
			c0.037-0.412-0.307-0.682-0.623-0.869c-1.076-0.645-2.252-1.055-3.473-1.304c-0.934-0.19-1.875-0.342-2.811-0.513
			c-0.129-0.026-0.26-0.077-0.338-0.244c0.078-0.04,0.135-0.095,0.178-0.086c2.008,0.388,4.07,0.507,5.99,1.283
			c0.41,0.17,0.805,0.373,1.141,0.666c0.799,0.705,0.727,1.586-0.195,2.113c-1.15,0.665-2.443,0.897-3.725,1.109
			c-2.604,0.438-5.234,0.6-7.867,0.719c-0.389,0.018-0.738-0.027-1.039-0.297C294.27,29.002,294.241,28.961,294.217,28.918z"/>
		<path fill-rule="evenodd" clip-rule="evenodd" d="M283.963,28.236c-0.242,0.188-0.514,0.198-0.799,0.142
			c-3.072-0.646-6.162-1.234-9.178-2.127c-1.186-0.354-2.297-0.904-3.293-1.658c-0.785-0.591-0.793-1.126-0.018-1.746
			c1.43-1.133,3.105-1.662,4.885-1.909c0.785-0.108,1.574-0.209,2.369-0.065c-1.404,0.095-2.781,0.312-4.113,0.771
			c-1.047,0.355-2.029,0.827-2.873,1.55c-0.529,0.453-0.527,0.686,0.049,1.078c1.205,0.82,2.529,1.368,3.945,1.723
			c2.871,0.724,5.777,1.291,8.674,1.91c0.18,0.04,0.471,0,0.332,0.354C283.946,28.257,283.963,28.236,283.963,28.236z"/>
		<path fill-rule="evenodd" clip-rule="evenodd" d="M286.202,10.582c0.184-0.715,0.725-1.093,1.326-1.271
			c0.412-0.127,0.787-0.577,1.289-0.284c0.801,0.459,1.299,1.147,1.424,2.064c0.053,0.427,0.098,0.769,0.73,0.527
			c-0.834,0.296-0.553,0.936-0.576,1.491c-0.043,1.066-0.117,2.133-0.184,3.2c-0.016,0.269-0.049,0.539-0.074,0.805
			c0.361,0.05,0.338-0.258,0.543-0.424c0.033,0.284,0.117,0.567-0.09,0.712c-0.809,0.564-0.639,1.45-0.682,2.203
			c-0.029,0.56,0.559,0.746,1.293,0.692c-0.463,0.337-0.742,0.266-1.035,0.116c-0.158-0.077-0.676-0.552-0.584-0.645
			c0.113-0.124,0.1-0.255,0.096-0.394c-0.109-2.629,0.381-5.257,0.047-7.893c-0.094-0.76-0.045-1.623-0.953-1.921
			c-0.939-0.307-1.727,0.083-2.396,0.749C286.301,10.383,286.258,10.492,286.202,10.582z"/>
		<path fill-rule="evenodd" clip-rule="evenodd" d="M294.217,28.918c0.023,0.043,0.053,0.084,0.074,0.127
			c0.07,0.346-0.176,0.297-0.381,0.301c-2.219,0.02-4.43-0.12-6.637-0.335c-0.904-0.091-1.805-0.233-2.699-0.38
			c-0.238-0.037-0.605,0.035-0.611-0.396c0,0-0.018,0.021-0.02,0.021c0.311-0.202,0.652-0.216,1.006-0.155
			c2.648,0.452,5.314,0.583,7.992,0.553C293.399,28.65,293.815,28.711,294.217,28.918z"/>
		<path fill-rule="evenodd" clip-rule="evenodd" d="M274.139,38.606c0,0,0.021,0.004,0.021,0c-0.328,0.313-0.621,0.156-0.93-0.051
			c-2.045-1.364-3.287-3.32-4.115-5.58c-0.16-0.441-0.396-0.87-0.412-1.553c0.523,1.289,1.043,2.377,1.713,3.383
			c0.889,1.331,2.051,2.354,3.416,3.162C274.04,38.09,274.569,38.143,274.139,38.606z"/>
		<path fill-rule="evenodd" clip-rule="evenodd" d="M282.397,15.313c0.734,1.203,2.922,1.154,3.846-0.088
			c0.463-0.628,0.727-1.335,0.709-2.135c0.293,1.101-0.221,2.465-1.121,3.05c-0.9,0.588-2.588,0.545-3.379-0.108
			c-0.744-0.61-0.777-1.425-0.609-2.298c0.15-0.761,0.543-1.304,1.332-1.406c0.371-0.046,0.758-0.629,1.168,0.014
			c-0.227,0.016-0.43,0.032-0.635,0.047c-1.273,0.091-2.117,1.579-1.559,2.749c0.059,0.12,0.16,0.155,0.266,0.198L282.397,15.313z"
			/>
		<path fill-rule="evenodd" clip-rule="evenodd" d="M307.86,32.499c-0.85,2.215-1.865,4.313-3.898,5.709
			c-0.152,0.102-0.322,0.188-0.5,0.236c-0.111,0.037-0.221-0.049-0.283-0.158c-0.078-0.133-0.002-0.213,0.111-0.273
			c2.252-1.209,3.379-3.34,4.52-5.469C307.813,32.527,307.842,32.514,307.86,32.499z"/>
		<path fill-rule="evenodd" clip-rule="evenodd" d="M295.606,17.569c-0.324-0.084-0.611-0.164-0.547,0.373
			c0.113,0.992,0.141,1.988,0.295,2.969c0.074,0.471,0.631,0.551,1.041,0.824c-1.217,0.314-1.551-1.538-1.58-1.867
			c-0.07-0.739-0.057-1.488-0.068-2.23c-0.002-0.256,0.035-0.508,0.246-0.766c0.201,0.243,0.4,0.477,0.6,0.711L295.606,17.569z"/>
		<path fill-rule="evenodd" clip-rule="evenodd" d="M300.583,17.795c-0.246-0.049-0.492-0.096-0.732-0.142
			c-0.004,0.003,0.004-0.045,0.027-0.058c0.275-0.135,0.734-0.141,0.678-0.553c-0.045-0.353-0.447-0.424-0.781-0.471
			c-1.32-0.195-2.643-0.514-3.973-0.037c-0.102,0.037-0.227-0.005-0.332-0.154c0.162-0.307,0.516-0.275,0.768-0.304
			c1.279-0.155,2.553-0.109,3.799,0.243c0.822,0.229,0.973,0.68,0.533,1.459L300.583,17.795z"/>
		<path fill-rule="evenodd" clip-rule="evenodd" d="M300.569,17.78c0.305,1.392-0.586,3.892-1.469,4.099
			c1.156-1.122,1.002-2.717,1.482-4.082C300.583,17.795,300.569,17.78,300.569,17.78z"/>
		<path fill-rule="evenodd" clip-rule="evenodd" d="M281.413,21.281c1.721-0.085,3.418,0.185,5.127,0.292
			C284.815,21.756,283.122,21.418,281.413,21.281z"/>
		<path fill-rule="evenodd" clip-rule="evenodd" d="M295.592,17.583c0.533,0.133,0.965,0.232,0.822,1.027
			c-0.121,0.679,0.158,1.413-0.02,2.123c-0.186-0.604-0.268-1.222-0.244-1.843c0.025-0.539-0.018-1.024-0.545-1.321L295.592,17.583z
			"/>
		<path fill-rule="evenodd" clip-rule="evenodd" d="M298.233,23.58c-0.428-0.057-0.799-0.097-1.164-0.16
			c-0.141-0.024-0.264-0.119-0.221-0.295c0.037-0.166,0.164-0.219,0.318-0.188c0.367,0.062,0.73,0.133,1.096,0.203
			c0.189,0.034,0.406,0.085,0.336,0.338C298.536,23.683,298.325,23.566,298.233,23.58z"/>
		<path fill-rule="evenodd" clip-rule="evenodd" d="M282.415,15.335c0.801-0.58,1.695-0.15,2.541-0.254
			c-0.838,0.231-1.684,0.389-2.559,0.231L282.415,15.335z"/>
		<path fill-rule="evenodd" clip-rule="evenodd" d="M290.778,11.292c-0.359-0.941-0.531-1.91-1.447-2.446
			C290.258,9.042,290.68,9.757,290.778,11.292z"/>
		<path fill-rule="evenodd" clip-rule="evenodd" d="M290.684,21.975c0.639-0.175,1.242,0.066,1.859,0.127
			c0.113,0.014,0.189,0.15,0.135,0.271c-0.057,0.132-0.199,0.097-0.305,0.068C291.811,22.292,291.249,22.129,290.684,21.975z"/>
		<path fill-rule="evenodd" clip-rule="evenodd" d="M297.893,18.776c0.082,0.642-0.119,1.238-0.279,1.837
			C297.573,19.982,297.454,19.337,297.893,18.776z"/>
		<path fill-rule="evenodd" clip-rule="evenodd" d="M294.534,22.818c0.025-0.06,0.029-0.091,0.043-0.102
			c0.365-0.185,0.703-0.177,0.99,0.14c0.033,0.039,0.023,0.183,0.014,0.183C295.194,23.121,294.852,23.028,294.534,22.818z"/>
		<path fill-rule="evenodd" clip-rule="evenodd" d="M290.809,23.248c-0.645,0.121-1.25-0.091-1.865-0.212
			C289.604,22.802,290.186,23.193,290.809,23.248z"/>
		<path fill-rule="evenodd" clip-rule="evenodd" d="M287.895,22.889c-0.414,0.04-0.816,0.026-1.361-0.234
			C287.133,22.476,287.53,22.551,287.895,22.889z"/>
	</g>
</g>
<g>
	<text transform="matrix(1 0 0 1 -89.7891 -218.6553)" font-family="'Castellar'" font-size="43.3069">OLD SINKS</text>
	<g>
		<path fill-rule="evenodd" clip-rule="evenodd" d="M208.52-226.103c-0.013-0.53,0.427-0.408,0.7-0.439
			c2.405-0.273,4.741-0.821,6.995-1.706c1.123-0.44,2.199-0.978,3.227-1.616c0.455-0.285,0.854-0.637,1.201-1.046
			c0.713-0.846,0.787-1.744,0.234-2.699c-0.52-0.898-1.311-1.49-2.189-1.987c-1.424-0.799-2.992-1.201-4.541-1.655
			c2.377,0.369,4.752,0.722,6.691,2.348c0.734,0.622,1.127,1.442,1.373,2.354c0,0.185,0,0.371,0,0.556
			c-0.377,1.613-1.486,2.596-2.867,3.359c-2.99,1.655-6.228,2.468-9.58,2.907c-0.416,0.055-0.774-0.054-1.123-0.252
			C208.601-226.022,208.559-226.062,208.52-226.103z"/>
		<path fill-rule="evenodd" clip-rule="evenodd" d="M199.364-252.89c0.411,0.063,0.827,0.101,1.234,0.182
			c1.97,0.406,3.08,1.816,3.379,4.065c0.282,2.097-0.134,4.166-0.128,6.252c0,0.342,0,0.683,0,1.025c-0.074,0-0.146,0-0.22,0
			c0-1.23-0.022-2.459,0.009-3.689c0.029-1.187-0.013-2.363-0.245-3.531c-0.463-2.311-1.744-3.382-4.108-3.446
			c-0.963-0.027-1.896,0.129-2.807,0.423c-1.711,0.555-2.38,1.296-2.873,3.14c-0.181-0.821,0.283-2.066,1.069-2.769
			c1.021-0.911,2.254-1.34,3.59-1.518c0.273-0.04,0.548-0.091,0.819-0.134C199.178-252.89,199.271-252.89,199.364-252.89z"/>
		<path fill-rule="evenodd" clip-rule="evenodd" d="M184.581-220.843c0.541-0.561,1.063-0.02,1.49,0.134
			c2.219,0.79,4.518,1.143,6.84,1.38c3.12,0.314,6.253,0.339,9.383,0.26c3.539-0.08,7.01-0.582,10.314-1.938
			c0.106-0.042,0.211-0.087,0.32-0.13c0.207-0.083,0.385-0.012,0.464,0.172c0.099,0.229-0.14,0.266-0.265,0.326
			c-1.269,0.634-2.599,1.103-3.974,1.453c-2.006,0.51-4.055,0.718-6.113,0.836c-2.839,0.174-5.674-0.058-8.512-0.016
			c-0.913,0.014-1.85-0.04-2.734-0.114c-0.874-0.078-1.856-0.049-2.698-0.5c-0.021-0.011-0.053-0.028-0.065-0.023
			c-0.44,0.309-0.742-0.134-1.11-0.213c-0.54-0.116-1.078-0.268-1.602-0.447c-0.504-0.168-0.991-0.385-1.482-0.587
			c-0.279-0.111-0.54-0.245-0.234-0.593C184.602-220.84,184.581-220.843,184.581-220.843z"/>
		<path fill-rule="evenodd" clip-rule="evenodd" d="M190.489-226.944c-0.536,0.391-1.113,0.192-1.678,0.109
			c-2.912-0.413-5.796-0.955-8.534-2.089c-1.14-0.469-2.22-1.045-3.133-1.894c-2.178-2.02-1.905-4.865,0.616-6.429
			c0.571-0.353,1.182-0.632,1.814-0.864c4.525-1.652,9.158-2.45,13.979-1.719c0.319,0.046,0.646,0.046,0.969,0.083
			c0.316,0.039,0.628,0.09,0.938,0.202c-0.428,0-0.86,0.04-1.28-0.006c-4.934-0.521-9.696,0.22-14.337,1.895
			c-0.827,0.299-1.628,0.667-2.323,1.225c-1.526,1.22-1.741,3.081-0.506,4.603c0.932,1.145,2.215,1.798,3.549,2.331
			c2.639,1.058,5.414,1.556,8.212,1.961c0.414,0.059,0.827,0.103,1.242,0.151C190.28-227.351,190.541-227.316,190.489-226.944
			L190.489-226.944z"/>
		<path fill-rule="evenodd" clip-rule="evenodd" d="M190.489-226.944L190.489-226.944c0.214-0.404,0.572-0.316,0.917-0.273
			c4.823,0.612,9.654,1.108,14.529,0.93c0.577-0.021,1.152-0.075,1.732-0.117c0.324-0.023,0.654-0.053,0.853,0.301
			c0.039,0.041,0.081,0.081,0.121,0.124c0.131,0.113,0.269,0.27,0.006,0.349c-0.322,0.092-0.803,0.26-0.957,0.187
			c-0.469-0.224-1.379,0.19-1.716,0.038c-0.33-0.151-0.814-0.053-1.149,0.049c-0.396,0.122-2.131-0.131-2.529-0.152
			c-2.544-0.108-5.079-0.329-7.609-0.626c-1.309-0.153-2.622-0.285-3.93-0.435C190.54-226.59,190.218-226.567,190.489-226.944z"/>
		<path fill-rule="evenodd" clip-rule="evenodd" d="M204.538-230.471c-0.04-0.433,0.298-0.254,0.468-0.256
			c2.992-0.058,5.965-0.345,8.913-0.852c0.912-0.157,1.824-0.344,2.676-0.716c0.293-0.125,0.664-0.253,0.699-0.613
			c0.037-0.41-0.303-0.678-0.617-0.863c-1.07-0.641-2.24-1.048-3.453-1.297c-0.928-0.188-1.863-0.339-2.792-0.509
			c-0.13-0.026-0.259-0.077-0.336-0.243c0.077-0.04,0.134-0.094,0.177-0.086c1.994,0.386,4.045,0.504,5.953,1.277
			c0.406,0.168,0.799,0.371,1.133,0.662c0.795,0.701,0.723,1.576-0.193,2.1c-1.143,0.662-2.43,0.892-3.701,1.104
			c-2.588,0.435-5.203,0.595-7.819,0.714c-0.388,0.018-0.735-0.027-1.032-0.295C204.59-230.388,204.561-230.429,204.538-230.471z"/>
		<path fill-rule="evenodd" clip-rule="evenodd" d="M194.346-231.15c-0.242,0.187-0.511,0.197-0.795,0.14
			c-3.054-0.642-6.124-1.226-9.121-2.114c-1.179-0.352-2.283-0.898-3.272-1.647c-0.78-0.588-0.79-1.12-0.018-1.736
			c1.42-1.125,3.086-1.652,4.854-1.898c0.781-0.108,1.564-0.208,2.355-0.064c-1.396,0.094-2.764,0.31-4.089,0.766
			c-1.041,0.354-2.016,0.823-2.854,1.541c-0.527,0.451-0.524,0.682,0.048,1.072c1.197,0.815,2.515,1.36,3.922,1.712
			c2.854,0.719,5.742,1.283,8.62,1.898c0.18,0.04,0.469,0,0.33,0.352C194.328-231.128,194.346-231.15,194.346-231.15z"/>
		<path fill-rule="evenodd" clip-rule="evenodd" d="M196.57-248.697c0.184-0.71,0.72-1.086,1.319-1.263
			c0.408-0.126,0.781-0.573,1.279-0.282c0.797,0.456,1.291,1.14,1.415,2.051c0.054,0.425,0.099,0.764,0.728,0.524
			c-0.83,0.294-0.549,0.93-0.572,1.482c-0.044,1.059-0.118,2.12-0.184,3.18c-0.015,0.268-0.049,0.536-0.074,0.8
			c0.36,0.049,0.336-0.257,0.541-0.422c0.033,0.283,0.115,0.564-0.09,0.708c-0.804,0.561-0.635,1.441-0.677,2.19
			c-0.03,0.556,0.555,0.741,1.284,0.688c-0.46,0.335-0.737,0.264-1.029,0.116c-0.157-0.078-0.672-0.549-0.581-0.641
			c0.114-0.124,0.101-0.254,0.097-0.392c-0.109-2.612,0.377-5.225,0.047-7.844c-0.095-0.755-0.045-1.613-0.948-1.909
			c-0.934-0.305-1.716,0.083-2.381,0.744C196.668-248.894,196.626-248.786,196.57-248.697z"/>
		<path fill-rule="evenodd" clip-rule="evenodd" d="M204.538-230.471c0.023,0.042,0.053,0.083,0.074,0.126
			c0.068,0.344-0.177,0.295-0.379,0.299c-2.206,0.02-4.403-0.12-6.598-0.333c-0.898-0.09-1.793-0.232-2.683-0.377
			c-0.236-0.037-0.602,0.035-0.606-0.394c0,0-0.019,0.021-0.021,0.021c0.31-0.201,0.648-0.214,1.001-0.155
			c2.631,0.45,5.282,0.58,7.942,0.551C203.723-230.739,204.138-230.677,204.538-230.471z"/>
		<path fill-rule="evenodd" clip-rule="evenodd" d="M184.581-220.843c0,0,0.021,0.003,0.021,0c-0.326,0.311-0.616,0.155-0.924-0.05
			c-2.033-1.356-3.268-3.301-4.09-5.546c-0.159-0.438-0.395-0.865-0.41-1.543c0.521,1.282,1.037,2.362,1.703,3.362
			c0.884,1.323,2.037,2.34,3.395,3.143C184.483-221.355,185.008-221.303,184.581-220.843z"/>
		<path fill-rule="evenodd" clip-rule="evenodd" d="M192.79-243.994c0.729,1.195,2.902,1.147,3.82-0.087
			c0.462-0.625,0.723-1.327,0.705-2.123c0.292,1.094-0.219,2.451-1.114,3.032c-0.894,0.584-2.571,0.541-3.358-0.108
			c-0.739-0.607-0.772-1.417-0.604-2.284c0.149-0.757,0.54-1.296,1.324-1.398c0.367-0.045,0.753-0.625,1.159,0.014
			c-0.224,0.015-0.426,0.032-0.63,0.046c-1.266,0.09-2.104,1.57-1.549,2.732c0.059,0.12,0.158,0.155,0.264,0.197L192.79-243.994z"/>
		<path fill-rule="evenodd" clip-rule="evenodd" d="M218.096-226.913c-0.844,2.2-1.854,4.287-3.875,5.674
			c-0.15,0.101-0.319,0.185-0.496,0.233c-0.11,0.037-0.219-0.048-0.281-0.156c-0.078-0.132-0.003-0.212,0.11-0.272
			c2.237-1.202,3.358-3.32,4.491-5.437C218.049-226.885,218.079-226.897,218.096-226.913z"/>
		<path fill-rule="evenodd" clip-rule="evenodd" d="M205.917-241.752c-0.322-0.083-0.607-0.163-0.545,0.371
			c0.114,0.986,0.141,1.977,0.294,2.951c0.075,0.467,0.628,0.547,1.034,0.819c-1.208,0.312-1.541-1.529-1.569-1.856
			c-0.071-0.735-0.058-1.479-0.068-2.217c-0.003-0.254,0.034-0.504,0.245-0.76c0.198,0.242,0.398,0.473,0.596,0.706L205.917-241.752
			z"/>
		<path fill-rule="evenodd" clip-rule="evenodd" d="M210.864-241.527c-0.245-0.048-0.489-0.095-0.729-0.14
			c-0.003,0.003,0.006-0.045,0.028-0.057c0.274-0.134,0.73-0.14,0.674-0.55c-0.046-0.351-0.445-0.421-0.776-0.467
			c-1.312-0.194-2.627-0.511-3.948-0.038c-0.103,0.038-0.226-0.005-0.331-0.153c0.162-0.305,0.514-0.274,0.763-0.302
			c1.272-0.154,2.537-0.108,3.776,0.242c0.817,0.228,0.967,0.676,0.53,1.45L210.864-241.527z"/>
		<path fill-rule="evenodd" clip-rule="evenodd" d="M210.85-241.542c0.303,1.383-0.584,3.868-1.46,4.073
			c1.149-1.115,0.996-2.7,1.474-4.056C210.864-241.527,210.85-241.542,210.85-241.542z"/>
		<path fill-rule="evenodd" clip-rule="evenodd" d="M191.81-238.062c1.71-0.084,3.398,0.183,5.097,0.29
			C195.192-237.59,193.508-237.926,191.81-238.062z"/>
		<path fill-rule="evenodd" clip-rule="evenodd" d="M205.904-241.739c0.529,0.132,0.959,0.231,0.817,1.021
			c-0.12,0.675,0.157,1.405-0.021,2.11c-0.185-0.601-0.265-1.214-0.241-1.832c0.023-0.536-0.019-1.018-0.542-1.313L205.904-241.739z
			"/>
		<path fill-rule="evenodd" clip-rule="evenodd" d="M208.528-235.778c-0.425-0.056-0.793-0.097-1.157-0.159
			c-0.139-0.025-0.262-0.119-0.22-0.293c0.037-0.165,0.163-0.217,0.317-0.188c0.364,0.062,0.726,0.132,1.089,0.202
			c0.188,0.034,0.403,0.084,0.333,0.336C208.83-235.675,208.62-235.792,208.528-235.778z"/>
		<path fill-rule="evenodd" clip-rule="evenodd" d="M192.806-243.972c0.797-0.576,1.686-0.149,2.525-0.252
			c-0.833,0.23-1.674,0.386-2.542,0.23L192.806-243.972z"/>
		<path fill-rule="evenodd" clip-rule="evenodd" d="M201.118-247.99c-0.355-0.935-0.527-1.898-1.438-2.432
			C200.602-250.228,201.022-249.516,201.118-247.99z"/>
		<path fill-rule="evenodd" clip-rule="evenodd" d="M201.025-237.373c0.636-0.174,1.234,0.065,1.848,0.125
			c0.114,0.014,0.189,0.15,0.135,0.27c-0.057,0.132-0.197,0.097-0.304,0.068C202.145-237.059,201.586-237.22,201.025-237.373z"/>
		<path fill-rule="evenodd" clip-rule="evenodd" d="M208.191-240.553c0.08,0.638-0.119,1.23-0.278,1.826
			C207.872-239.354,207.753-239.995,208.191-240.553z"/>
		<path fill-rule="evenodd" clip-rule="evenodd" d="M204.852-236.535c0.025-0.059,0.027-0.09,0.043-0.101
			c0.361-0.184,0.697-0.176,0.982,0.138c0.034,0.039,0.023,0.182,0.015,0.182C205.506-236.234,205.168-236.327,204.852-236.535z"/>
		<path fill-rule="evenodd" clip-rule="evenodd" d="M201.15-236.108c-0.642,0.121-1.242-0.091-1.854-0.21
			C199.952-236.55,200.531-236.163,201.15-236.108z"/>
		<path fill-rule="evenodd" clip-rule="evenodd" d="M198.252-236.464c-0.41,0.04-0.811,0.026-1.352-0.233
			C197.496-236.875,197.89-236.8,198.252-236.464z"/>
	</g>
</g>
</svg>
